<?xml version="1.0" encoding="UTF-8"?>
<svg width="140" height="140" viewBox="0 0 128 128" version="1.1" xmlns="http://www.w3.org/2000/svg" xmlns:xlink="http://www.w3.org/1999/xlink">
    <!-- Generator: Sketch 51.1 (57501) - http://www.bohemiancoding.com/sketch -->
    <title>land use</title>
    <defs></defs>
    <g id="landuse" stroke="none" stroke-width="1" fill="none" fill-rule="evenodd">
        <rect fill="#E8E9EA" x="0" y="0" width="128" height="128"></rect>
        <g id="MAP" transform="translate(-13.000000, -70.000000)" stroke="#F5F6F7" stroke-linecap="round" stroke-linejoin="round" stroke-width="3">
            <path d="M4.25585938,103.970703 C-1.36513472,95.8486716 10.1726257,97.2347394 38.8691406,108.128906 C81.913913,124.470157 98.9797151,136.544732 117.111328,146.814453 C135.242941,157.084174 129.689453,162.626953 147.205078,169.490234" id="Path-13"></path>
            <path d="M79.75,160.587891 L92.140625,134 L99.2574137,119.104781 C100.883465,114.363432 103.380994,111.601291 106.75,110.818359 C110.119006,110.035427 114.157845,111.278565 118.866517,114.547771 L147.730469,128.601562" id="Path-14"></path>
            <path d="M96.5,29.5 L47,110.724609" id="Path-15"></path>
            <path d="M124.5,17.5 L75,98.7246094" id="Path-15-Copy-2"></path>
            <path d="M142.5,18.5 C118.250633,61.7283975 103.083966,87.7616006 97,96.5996094 C87.874051,109.856622 76.1109449,113.043435 70.8459557,122.589844 C65.5809666,132.136253 72.1328125,143.359375 66.5878906,154.347656 C62.891276,161.673177 57.8619792,171.390625 51.5,183.5" id="Path-15-Copy-3"></path>
            <path d="M96.5,0.5 L47,81.7246094" id="Path-15-Copy"></path>
            <path d="M95.5703125,167.910156 L136.548828,82.3046875" id="Path-16"></path>
            <path d="M111.15625,64.8710938 L147.753906,90.0800781" id="Path-17"></path>
            <polyline id="Path-18" points="68.7539062 137.836914 42.8105469 126.53418 0.2421875 117.261719"></polyline>
            <polyline id="Path-19" points="4.68066406 135.56543 38.4345703 142.075195 118.146484 178.874023"></polyline>
            <path d="M23.4736328,183.707031 L47.1806641,110.857422" id="Path-20"></path>
            <polyline id="Path-21" points="7.6953125 183.009766 113.5625 187.496094 125.614258 192.347656 128.069336 195.589844"></polyline>
            <path d="M146.379883,119.029297 L107.446289,202.422852" id="Path-22"></path>
            <path d="M87.5810547,106.969727 L21.6630859,65.7294922" id="Path-23"></path>
            <path d="M31.0556641,71.9833984 L13,100" id="Path-24"></path>
            <path d="M20.0693359,88.6542969 L7.171875,79.9775391" id="Path-25"></path>
            <path d="M40.6064453,184.482422 C44.6285807,193.893229 43.8642578,200.717448 38.3134766,204.955078" id="Path-26"></path>
            <path d="M126.265625,192.064453 C128.587891,184.233073 134.94987,182.016927 145.351562,185.416016" id="Path-27"></path>
        </g>
        <g id="Mixin/Fill/Info/1" opacity="0.373046875" style="mix-blend-mode: multiply;" transform="translate(84.492145, 44.987207) rotate(25.000000) translate(-84.492145, -44.987207) translate(38.492145, -6.012793)" fill="#32A8EA">
            <path d="M0.578452001,43.1317961 L32.6369737,46.689227 C32.6369737,46.689227 39.6432377,39.2617227 41.4051853,3.50470596 C42.5021425,2.35953878 47.0402777,0.772567364 47.0402777,0.772567364 L72.473594,4.82445076 L91.980637,45.285829 L91.8991882,100.492363 L2.53041139,101.90723 L2.38360147,100.961273 L0.578452001,43.1317961 Z" id="Color-Fill"></path>
        </g>
        <polygon id="Path-47" fill="#32A8EA" opacity="0.66" style="mix-blend-mode: multiply;" points="128.280884 59.9003906 105.087524 109.372314 97.3839111 129.24231 135.599609 134.443359"></polygon>
        <g id="Mixin/Fill/Info/1-Copy" opacity="0.655412946" style="mix-blend-mode: multiply;" transform="translate(-0.249914, 26.664735) rotate(25.000000) translate(0.249914, -26.664735) translate(-41.749914, -9.835265)" fill="#32A8EA">
            <polygon id="Color-Fill" points="0.956716155 0.934237232 80.6158564 9.42251371 82.4366163 67.2443072 58.4491675 72.6546139"></polygon>
        </g>
        <polygon id="Path-28" fill="#32A8EA" style="mix-blend-mode: multiply;" opacity="0.2" points="11.1865234 112.953857 23.5795898 72.7585449 105.096191 109.227539 95.9023438 133.197266 -9 128.677734 -2.10839844 112.953857"></polygon>
        <polygon id="Path-48" fill="#32A8EA" opacity="0.37" points="-11 112.916016 11.2070312 112.916016 23.8613281 71.8496094 -2.64648438 66"></polygon>
        <path d="M10.3808594,-3.22265625 L46.5078125,18.5654297 L74.2050781,35.4404297 C81.6289063,31.1780599 90.9208984,18.2903646 102.081055,-3.22265625 L128.210938,14.4321289 L136.46875,-12.8154297 L102.081055,-20.6523438 L44.3076172,-18.3730469 L13.5996094,-12.8154297 L10.3808594,-3.22265625 Z" id="Path-49" fill="#32A8EA" style="mix-blend-mode: multiply;" opacity="0.2"></path>
        <g id="Drop-Pin" transform="translate(53.000000, 48.000000)" stroke="#FFFFFF">
            <path d="M0.143,11.428 C0.143,17.852 11.571,32 11.571,32 C11.571,32 22.999,17.852 22.999,11.428 C22.999,5.00133333 17.9936667,0 11.571,0 C5.14166667,0 0.143,5.00133333 0.143,11.428 Z" id="Fill-1" fill="#20C063"></path>
            <g id="house" transform="translate(5.000000, 5.000000)" stroke-linecap="round" stroke-linejoin="round">
                <polyline id="Shape" points="1.44444444 6.35555556 1.44444444 12.7111111 4.60950625 12.7111111 4.60950625 8.31077777 8.12348362 8.31077777 8.12348362 12.7111111 11.2666667 12.7111111 11.2666667 6.35555556"></polyline>
                <polyline id="Shape" points="0 6.06666667 6.35555556 0 12.7111111 6.06666667"></polyline>
                <polyline id="Shape" points="8.66666667 0.577777778 10.6888889 0.577777778 10.6888889 2.6"></polyline>
            </g>
        </g>
    </g>
</svg>